<svg width="52" height="26" viewBox="0 0 52 26" fill="none" xmlns="http://www.w3.org/2000/svg">
<path d="M9.64062 15.4531C11.9427 17.224 13.2292 18.2448 13.5 18.5156L14.0625 19.0938C14.3854 19.3958 14.6562 19.5469 14.875 19.5469C15.0938 19.5469 15.2865 19.4948 15.4531 19.3906C15.6198 19.276 15.8177 19.099 16.0469 18.8594C16.2865 18.6094 16.5521 18.3646 16.8438 18.125L20.3281 15.4375L16.0625 6.23438C15.7812 5.61979 15.5573 5.15625 15.3906 4.84375C15.2344 4.53125 15.0885 4.375 14.9531 4.375C14.8281 4.375 14.6979 4.48958 14.5625 4.71875C14.4375 4.9375 14.2708 5.28125 14.0625 5.75L9.64062 15.4531ZM4.26562 24.875L1.95312 25C1.14062 25 0.734375 24.6719 0.734375 24.0156C0.734375 23.5885 1.07292 23.1146 1.75 22.5938C2.95833 21.6354 4.08333 20.1458 5.125 18.125L10.5625 7.1875L12.5 3.07812C12.9583 2.06771 13.349 1.36979 13.6719 0.984375C14.0052 0.588542 14.4271 0.390625 14.9375 0.390625C15.4479 0.390625 15.875 0.5625 16.2188 0.90625C16.5729 1.25 16.9948 1.94792 17.4844 3L20.9062 10.3125C23.8333 16.125 25.3906 19.2031 25.5781 19.5469L26.1562 20.5938C26.6146 21.3958 26.9323 21.8802 27.1094 22.0469C27.2865 22.2135 27.4688 22.3542 27.6562 22.4688C28.4792 22.9583 28.8906 23.3958 28.8906 23.7812C28.8906 24.5938 28.4844 25 27.6719 25L25.3125 24.8906L22.1406 25C21.6094 25 21.1927 24.8958 20.8906 24.6875C20.5885 24.4792 20.4375 24.1667 20.4375 23.75C20.4375 22.8958 21.3854 22.4688 23.2812 22.4688C23.3958 22.4688 23.5104 22.4688 23.625 22.4688C23.7396 22.4688 23.8542 22.4635 23.9688 22.4531C23.6875 22.0469 23.3958 21.5312 23.0938 20.9062L21.5 17.6562L18.5625 19.9375C17.6042 20.6771 16.8906 21.3333 16.4219 21.9062C15.9531 22.4688 15.526 22.75 15.1406 22.75C14.7552 22.75 14.4479 22.6562 14.2188 22.4688C14 22.2812 13.8021 22.0833 13.625 21.875L12.9688 21.125C12.7812 20.9062 12.5312 20.6719 12.2188 20.4219L9.8125 18.625C9.32292 18.2708 8.82292 17.8906 8.3125 17.4844L6.01562 22.5469H6.48438C7.50521 22.5469 8.24479 22.6406 8.70312 22.8281C9.16146 23.0052 9.39062 23.349 9.39062 23.8594C9.39062 24.6302 8.85938 25.0156 7.79688 25.0156L4.26562 24.875ZM37.875 3.17188C37.2396 3.17188 36.7344 3.18229 36.3594 3.20312V14.5938C37.401 14.6458 38.2812 14.6719 39 14.6719C40.7812 14.6719 42.3385 14.5156 43.6719 14.2031C45.0156 13.8906 46.099 13.276 46.9219 12.3594C47.7552 11.4323 48.1719 10.1198 48.1719 8.42188C48.1719 5.95312 46.6406 4.33854 43.5781 3.57812C42.4219 3.30729 40.5208 3.17188 37.875 3.17188ZM35.0156 24.9062L31.7344 25C31.2656 25 30.8958 24.8906 30.625 24.6719C30.3542 24.4427 30.2188 24.1406 30.2188 23.7656C30.2188 23.3906 30.375 23.0833 30.6875 22.8438C31.0104 22.6042 31.4375 22.4844 31.9688 22.4844H33.4531V3.32812C32.6823 3.36979 31.9583 3.39062 31.2812 3.39062C29.9479 3.39062 29.2812 2.94792 29.2812 2.0625C29.2812 1.5 29.6823 1.09375 30.4844 0.84375C30.7656 0.75 31.1094 0.703125 31.5156 0.703125H36.7344C39.5781 0.703125 41.3385 0.739583 42.0156 0.8125C42.7031 0.885417 43.4427 0.989583 44.2344 1.125C45.0365 1.25 45.9115 1.54167 46.8594 2C47.8073 2.45833 48.6042 3.01042 49.25 3.65625C50.5833 4.96875 51.25 6.46354 51.25 8.14062C51.25 9.81771 51 11.2135 50.5 12.3281C50 13.4427 49.2188 14.3542 48.1562 15.0625C46.0729 16.4583 42.6823 17.1562 37.9844 17.1562C37.7135 17.1562 37.4427 17.1562 37.1719 17.1562C36.901 17.1562 36.6302 17.151 36.3594 17.1406V22.4844H37.7812C38.5104 22.4844 39.0208 22.6146 39.3125 22.875C39.6146 23.125 39.7656 23.3802 39.7656 23.6406C39.7656 24.5469 39.2083 25 38.0938 25L35.0156 24.9062Z" fill="#A855F7"/>
</svg>
