<svg width="17" height="16" viewBox="0 0 17 16" fill="none" xmlns="http://www.w3.org/2000/svg">
<g id="emojione:flag-for-brazil">
<path id="Vector" d="M15.875 6.7C15.275 3.175 12.2 0.5 8.5 0.5C4.8 0.5 1.725 3.175 1.125 6.7L8.5 3L15.875 6.7ZM1.125 9.3C1.725 12.825 4.8 15.5 8.5 15.5C12.2 15.5 15.275 12.825 15.875 9.3L8.5 13L1.125 9.3Z" fill="#699635"/>
<path id="Vector_2" d="M8.5 3L1.125 6.7C1.05 7.125 1 7.55 1 8C1 8.45 1.05 8.875 1.125 9.3L8.5 13L15.875 9.3C15.95 8.875 16 8.45 16 8C16 7.55 15.95 7.125 15.875 6.7L8.5 3Z" fill="#FFE62E"/>
<g id="Group">
<path id="Vector_3" d="M7 7.09998C6.2 7.09998 5.45 7.27498 4.775 7.57498C4.75 7.72498 4.75 7.84998 4.75 7.99998C4.75 10.075 6.425 11.75 8.5 11.75C9.9 11.75 11.125 10.975 11.775 9.84998C10.85 8.22498 9.05 7.09998 7 7.09998Z" fill="#428BC1"/>
<path id="Vector_4" d="M12.2 8.6C12.225 8.4 12.25 8.2 12.25 8C12.25 5.925 10.575 4.25 8.5 4.25C7.025 4.25 5.75 5.1 5.125 6.35C5.725 6.175 6.35 6.075 7 6.075C9.125 6.075 11 7.075 12.2 8.6Z" fill="#428BC1"/>
</g>
<g id="Group_2">
<path id="Vector_5" d="M7.00039 6.07501C6.35039 6.07501 5.72539 6.17501 5.12539 6.35001C4.95039 6.72501 4.82539 7.12501 4.77539 7.57501C5.45039 7.27501 6.20039 7.10001 7.00039 7.10001C9.05039 7.10001 10.8504 8.20001 11.7754 9.82501C12.0004 9.45001 12.1254 9.02501 12.2004 8.60001C11.0004 7.07501 9.12539 6.07501 7.00039 6.07501Z" fill="white"/>
<path id="Vector_6" d="M6 8.25C6.13807 8.25 6.25 8.13807 6.25 8C6.25 7.86193 6.13807 7.75 6 7.75C5.86193 7.75 5.75 7.86193 5.75 8C5.75 8.13807 5.86193 8.25 6 8.25Z" fill="white"/>
<path id="Vector_7" d="M7 9.75C7.13807 9.75 7.25 9.63807 7.25 9.5C7.25 9.36193 7.13807 9.25 7 9.25C6.86193 9.25 6.75 9.36193 6.75 9.5C6.75 9.63807 6.86193 9.75 7 9.75Z" fill="white"/>
<path id="Vector_8" d="M8.5 9.75C8.63807 9.75 8.75 9.63807 8.75 9.5C8.75 9.36193 8.63807 9.25 8.5 9.25C8.36193 9.25 8.25 9.36193 8.25 9.5C8.25 9.63807 8.36193 9.75 8.5 9.75Z" fill="white"/>
<path id="Vector_9" d="M8.5 10.75C8.63807 10.75 8.75 10.6381 8.75 10.5C8.75 10.3619 8.63807 10.25 8.5 10.25C8.36193 10.25 8.25 10.3619 8.25 10.5C8.25 10.6381 8.36193 10.75 8.5 10.75Z" fill="white"/>
<path id="Vector_10" d="M10.5 9.75C10.6381 9.75 10.75 9.63807 10.75 9.5C10.75 9.36193 10.6381 9.25 10.5 9.25C10.3619 9.25 10.25 9.36193 10.25 9.5C10.25 9.63807 10.3619 9.75 10.5 9.75Z" fill="white"/>
<path id="Vector_11" d="M10.5 10.75C10.6381 10.75 10.75 10.6381 10.75 10.5C10.75 10.3619 10.6381 10.25 10.5 10.25C10.3619 10.25 10.25 10.3619 10.25 10.5C10.25 10.6381 10.3619 10.75 10.5 10.75Z" fill="white"/>
<path id="Vector_12" d="M9.5 10.25C9.63807 10.25 9.75 10.1381 9.75 10C9.75 9.86193 9.63807 9.75 9.5 9.75C9.36193 9.75 9.25 9.86193 9.25 10C9.25 10.1381 9.36193 10.25 9.5 10.25Z" fill="white"/>
<path id="Vector_13" d="M6 9.25C6.13807 9.25 6.25 9.13807 6.25 9C6.25 8.86193 6.13807 8.75 6 8.75C5.86193 8.75 5.75 8.86193 5.75 9C5.75 9.13807 5.86193 9.25 6 9.25Z" fill="white"/>
</g>
</g>
</svg>
