<svg width="24" height="24" viewBox="0 0 24 24" fill="none" xmlns="http://www.w3.org/2000/svg">
<g id="ion:location-sharp">
<path id="Vector" d="M12 1.50012C7.85953 1.50012 4.5 4.52403 4.5 8.25012C4.5 14.2501 12 22.5001 12 22.5001C12 22.5001 19.5 14.2501 19.5 8.25012C19.5 4.52403 16.1405 1.50012 12 1.50012ZM12 12.0001C11.4067 12.0001 10.8266 11.8242 10.3333 11.4945C9.83994 11.1649 9.45542 10.6964 9.22836 10.1482C9.0013 9.59999 8.94189 8.99679 9.05764 8.41485C9.1734 7.83291 9.45912 7.29836 9.87868 6.8788C10.2982 6.45924 10.8328 6.17352 11.4147 6.05777C11.9967 5.94201 12.5999 6.00142 13.1481 6.22848C13.6962 6.45555 14.1648 6.84006 14.4944 7.33341C14.8241 7.82676 15 8.40678 15 9.00012C14.9991 9.7955 14.6828 10.5581 14.1204 11.1205C13.5579 11.6829 12.7954 11.9993 12 12.0001Z" fill="#A855F7"/>
</g>
</svg>
