<svg width="24" height="24" viewBox="0 0 24 24" fill="none" xmlns="http://www.w3.org/2000/svg">
<g id="solar:phone-bold">
<path id="Vector" d="M16.5559 12.9061L16.1009 13.3591C16.1009 13.3591 15.0179 14.4351 12.0629 11.4971C9.10788 8.5591 10.1909 7.4831 10.1909 7.4831L10.4769 7.1971C11.1839 6.4951 11.2509 5.3671 10.6339 4.5431L9.37388 2.8601C8.60988 1.8401 7.13488 1.7051 6.25988 2.5751L4.68988 4.1351C4.25688 4.5671 3.96688 5.1251 4.00188 5.7451C4.09188 7.3321 4.80988 10.7451 8.81388 14.7271C13.0609 18.9491 17.0459 19.1171 18.6749 18.9651C19.1909 18.9171 19.6389 18.6551 19.9999 18.2951L21.4199 16.8831C22.3799 15.9301 22.1099 14.2951 20.8819 13.6281L18.9719 12.5891C18.1659 12.1521 17.1859 12.2801 16.5559 12.9061Z" fill="#A855F7"/>
</g>
</svg>
