<svg width="17" height="16" viewBox="0 0 17 16" fill="none" xmlns="http://www.w3.org/2000/svg">
<g id="emojione:flag-for-united-states">
<path id="Vector" d="M12.5 1.65C11.325 0.925 9.975 0.5 8.5 0.5V1.65H12.5Z" fill="#ED4C5C"/>
<path id="Vector_2" d="M8.5 2.80002H13.9C13.475 2.37502 13 1.97502 12.5 1.65002H8.5V2.80002Z" fill="white"/>
<path id="Vector_3" d="M8.5 3.94999H14.825C14.55 3.52499 14.25 3.14999 13.925 2.79999H8.5V3.94999Z" fill="#ED4C5C"/>
<path id="Vector_4" d="M8.5 5.10001H15.425C15.25 4.70001 15.05 4.30001 14.825 3.95001H8.5V5.10001Z" fill="white"/>
<path id="Vector_5" d="M8.5 6.24998H15.8C15.7 5.84998 15.575 5.47498 15.425 5.09998H8.5V6.24998Z" fill="#ED4C5C"/>
<path id="Vector_6" d="M8.5 7.42502H15.975C15.95 7.02502 15.875 6.65002 15.8 6.27502H8.5V7.42502Z" fill="white"/>
<path id="Vector_7" d="M15.975 7.42499H8.5V7.99999H1C1 8.19999 1 8.37499 1.025 8.57499H15.975C16 8.37499 16 8.19999 16 7.99999C16 7.79999 16 7.59999 15.975 7.42499Z" fill="#ED4C5C"/>
<path id="Vector_8" d="M1.20039 9.72501H15.8004C15.9004 9.35001 15.9504 8.97501 15.9754 8.57501H1.02539C1.05039 8.95001 1.10039 9.35001 1.20039 9.72501Z" fill="white"/>
<path id="Vector_9" d="M1.5752 10.875H15.4252C15.5752 10.5 15.7002 10.125 15.8002 9.72498H1.2002C1.3002 10.125 1.4252 10.5 1.5752 10.875Z" fill="#ED4C5C"/>
<path id="Vector_10" d="M2.1752 12.025H14.8252C15.0502 11.65 15.2502 11.275 15.4252 10.875H1.5752C1.7502 11.275 1.9502 11.65 2.1752 12.025Z" fill="white"/>
<path id="Vector_11" d="M3.0748 13.175H13.9248C14.2498 12.825 14.5748 12.425 14.8248 12.025H2.1748C2.4248 12.45 2.7498 12.825 3.0748 13.175Z" fill="#ED4C5C"/>
<path id="Vector_12" d="M4.4752 14.325H12.5252C13.0502 14 13.5002 13.6 13.9252 13.175H3.0752C3.5002 13.625 3.9752 14 4.4752 14.325Z" fill="white"/>
<path id="Vector_13" d="M8.49961 15.5C9.97461 15.5 11.3496 15.075 12.5246 14.325H4.47461C5.64961 15.075 7.02461 15.5 8.49961 15.5Z" fill="#ED4C5C"/>
<path id="Vector_14" d="M4.5 1.65C3.975 1.975 3.5 2.375 3.075 2.8C2.725 3.15 2.425 3.55 2.175 3.95C1.95 4.325 1.725 4.7 1.575 5.1C1.425 5.475 1.3 5.85 1.2 6.25C1.1 6.625 1.05 7 1.025 7.4C1 7.6 1 7.8 1 8H8.5V0.5C7.025 0.5 5.675 0.925 4.5 1.65Z" fill="#428BC1"/>
<path id="Vector_15" d="M6.74961 0.75L6.87461 1.125H7.24961L6.94961 1.375L7.04961 1.75L6.74961 1.525L6.44961 1.75L6.54961 1.375L6.24961 1.125H6.62461L6.74961 0.75ZM7.74961 2.25L7.87461 2.625H8.24961L7.94961 2.875L8.04961 3.25L7.74961 3.025L7.44961 3.25L7.54961 2.875L7.24961 2.625H7.62461L7.74961 2.25ZM5.74961 2.25L5.87461 2.625H6.24961L5.94961 2.875L6.04961 3.25L5.74961 3.025L5.44961 3.25L5.54961 2.875L5.24961 2.625H5.62461L5.74961 2.25ZM6.74961 3.75L6.87461 4.125H7.24961L6.94961 4.375L7.04961 4.75L6.74961 4.525L6.44961 4.75L6.54961 4.375L6.24961 4.125H6.62461L6.74961 3.75ZM4.74961 3.75L4.87461 4.125H5.24961L4.94961 4.375L5.04961 4.75L4.74961 4.525L4.44961 4.75L4.54961 4.375L4.24961 4.125H4.62461L4.74961 3.75ZM2.74961 3.75L2.87461 4.125H3.24961L2.94961 4.375L3.04961 4.75L2.74961 4.525L2.44961 4.75L2.54961 4.375L2.24961 4.125H2.62461L2.74961 3.75ZM7.74961 5.25L7.87461 5.625H8.24961L7.94961 5.875L8.04961 6.25L7.74961 6.025L7.44961 6.25L7.54961 5.875L7.24961 5.625H7.62461L7.74961 5.25ZM5.74961 5.25L5.87461 5.625H6.24961L5.94961 5.875L6.04961 6.25L5.74961 6.025L5.44961 6.25L5.54961 5.875L5.24961 5.625H5.62461L5.74961 5.25ZM3.74961 5.25L3.87461 5.625H4.24961L3.94961 5.875L4.04961 6.25L3.74961 6.025L3.44961 6.25L3.54961 5.875L3.24961 5.625H3.62461L3.74961 5.25ZM6.74961 6.75L6.87461 7.125H7.24961L6.94961 7.375L7.04961 7.75L6.74961 7.525L6.44961 7.75L6.54961 7.375L6.24961 7.125H6.62461L6.74961 6.75ZM4.74961 6.75L4.87461 7.125H5.24961L4.94961 7.375L5.04961 7.75L4.74961 7.525L4.44961 7.75L4.54961 7.375L4.24961 7.125H4.62461L4.74961 6.75ZM2.74961 6.75L2.87461 7.125H3.24961L2.94961 7.375L3.04961 7.75L2.74961 7.525L2.44961 7.75L2.54961 7.375L2.24961 7.125H2.62461L2.74961 6.75ZM3.44961 3.25L3.74961 3.025L4.04961 3.25L3.92461 2.875L4.22461 2.625H3.84961L3.74961 2.25L3.62461 2.625H3.27461L3.57461 2.85L3.44961 3.25ZM1.44961 6.25L1.74961 6.025L2.04961 6.25L1.92461 5.875L2.22461 5.625H1.87461L1.74961 5.25L1.62461 5.625H1.37461C1.37461 5.65 1.34961 5.675 1.34961 5.7L1.54961 5.85L1.44961 6.25Z" fill="white"/>
</g>
</svg>
