<svg width="43" height="32" viewBox="0 0 43 32" fill="none" xmlns="http://www.w3.org/2000/svg">
<path id="&#226;&#128;&#156;" d="M42.0312 0.687622C41.1562 3.89596 40.2812 7.37512 39.4062 11.1251C38.5729 14.8335 37.8021 18.5001 37.0938 22.1251C36.3854 25.7501 35.8229 29.0418 35.4062 32.0001H24.3438L23.4062 30.6251C24.1562 27.5835 25.1146 24.3335 26.2812 20.8751C27.4896 17.4168 28.7812 13.9585 30.1562 10.5001C31.5729 7.00012 32.9896 3.72929 34.4062 0.687622H42.0312ZM19.0312 0.687622C18.1562 3.89596 17.2812 7.37512 16.4062 11.1251C15.5729 14.8335 14.8021 18.5001 14.0938 22.1251C13.3854 25.7501 12.8229 29.0418 12.4062 32.0001H1.40625L0.65625 30.6251C1.40625 27.5835 2.34375 24.3335 3.46875 20.8751C4.63542 17.4168 5.90625 13.9585 7.28125 10.5001C8.65625 7.00012 10.0521 3.72929 11.4688 0.687622H19.0312Z" fill="#A855F7"/>
</svg>
